<svg xmlns="http://www.w3.org/2000/svg" viewBox="0 0 25 26" width="25" height="26">
	<style>
		tspan { white-space:pre }
		.shp0 { fill: #3e4251 } 
	</style>
	<path id="Fill 1" class="shp0" d="M10.46,19.05c-1.61,0 -3.12,-0.47 -4.38,-1.28c1.52,0.18 3.03,-0.24 4.23,-1.18c-1.25,-0.02 -2.31,-0.85 -2.67,-1.99c0.45,0.09 0.89,0.06 1.29,-0.05c-1.38,-0.28 -2.32,-1.52 -2.29,-2.84c0.39,0.21 0.83,0.34 1.3,0.36c-1.27,-0.85 -1.63,-2.53 -0.89,-3.82c1.41,1.73 3.52,2.87 5.89,2.99c-0.42,-1.79 0.94,-3.51 2.79,-3.51c0.82,0 1.57,0.35 2.09,0.9c0.65,-0.13 1.26,-0.37 1.82,-0.69c-0.21,0.67 -0.67,1.23 -1.26,1.58c0.58,-0.07 1.13,-0.22 1.64,-0.45c-0.38,0.57 -0.87,1.08 -1.43,1.48c0.18,4.02 -2.82,8.51 -8.13,8.51zM4.03,25h16.66c2.21,0 4,-1.79 4,-4v-16.68c0,-2.21 -1.79,-4 -4,-4h-16.66c-2.21,0 -4,1.79 -4,4v16.68c0,2.21 1.79,4 4,4z" />
</svg>