<svg xmlns="http://www.w3.org/2000/svg" viewBox="0 0 25 26" width="25" height="26">
	<defs>
		<clipPath clipPathUnits="userSpaceOnUse" id="cp1">
			<path d="M0.1,25h24.66v-24.68h-24.66z" />
		</clipPath>
	</defs>
	<style>
		tspan { white-space:pre }
		.shp0 { fill: #3e4251 } 
	</style>
	<g id="Mask by Clip 15" clip-path="url(#cp1)">
		<path id="Fill 1" class="shp0" d="M9.46,5.35l-2.92,1.93c-0.27,0.18 -0.62,-0.03 -0.62,-0.35v-3.87c0,-0.33 0.35,-0.53 0.62,-0.35l2.92,1.93c0.25,0.15 0.25,0.55 0,0.7zM12.63,0h-10.27c-1.31,0 -2.37,1.12 -2.37,2.5v5c0,1.38 1.06,2.5 2.37,2.5h10.27c1.31,0 2.37,-1.12 2.37,-2.5v-5c0,-1.38 -1.06,-2.5 -2.37,-2.5z" />
		<path id="Fill 14" class="shp0" d="M4.1,25h16.66c2.21,0 4,-1.79 4,-4v-16.68c0,-2.21 -1.79,-4 -4,-4h-16.66c-2.21,0 -4,1.79 -4,4v16.68c0,2.21 1.79,4 4,4z" />
	</g>
</svg>