<svg xmlns="http://www.w3.org/2000/svg" viewBox="0 0 25 25" width="25" height="25">
	<defs>
		<clipPath clipPathUnits="userSpaceOnUse" id="cp1">
			<path d="M0.07,25h24.66v-24.68h-24.66z" />
		</clipPath>
	</defs>
	<style>
		tspan { white-space:pre }
		.shp0 { fill: #3e4251 } 
	</style>
	<g id="Mask by Clip 5" clip-path="url(#cp1)">
		<path id="Fill 4" class="shp0" d="M8.35,19.64c-1.51,0 -2.74,-1.23 -2.74,-2.74v-6.22h4.03c-0.41,0.58 -0.66,1.29 -0.66,2.05c0,1.96 1.59,3.55 3.55,3.55c1.96,0 3.55,-1.59 3.55,-3.55c0,-0.77 -0.24,-1.47 -0.66,-2.05h4.05v6.22c0,1.51 -1.23,2.74 -2.74,2.74zM15.26,12.73c0,1.51 -1.23,2.73 -2.73,2.73c-1.51,0 -2.73,-1.23 -2.73,-2.73c0,-0.82 0.36,-1.55 0.93,-2.05c0.2,-0.18 0.43,-0.32 0.67,-0.43c0.34,-0.16 0.73,-0.24 1.13,-0.24c0.4,0 0.78,0.09 1.13,0.24c0.25,0.11 0.47,0.26 0.67,0.43c0.57,0.5 0.93,1.24 0.93,2.05zM15.06,10.25c-0.64,-0.65 -1.54,-1.06 -2.53,-1.06c-0.99,0 -1.88,0.41 -2.53,1.06h-4.4v-1.8c0,-0.92 0.46,-1.74 1.16,-2.24v2.95h0.56v-3.26c0.13,-0.05 0.26,-0.09 0.4,-0.12v3.38h0.56v-3.46c0.02,0 0.04,0 0.06,0h0.32v3.46h0.56v-3.46h7.49c1.51,0 2.74,1.23 2.74,2.74v1.8zM0.07,4.32v16.68c0,2.21 1.79,4 4,4h16.66c2.21,0 4,-1.79 4,-4v-16.68c0,-2.21 -1.79,-4 -4,-4h-16.66c-2.21,0 -4,1.79 -4,4z" />
		<path id="Fill 7" class="shp0" d="M12.5,10.8c-1.1,0 -1.99,0.89 -1.99,1.99c0,1.1 0.89,1.99 1.99,1.99c1.1,0 1.99,-0.89 1.99,-1.99c0,-1.1 -0.89,-1.99 -1.99,-1.99" />
		<path id="Fill 9" class="shp0" d="M17.76,6.82h-1.43c-0.23,0 -0.42,0.19 -0.42,0.42v1.44c0,0.23 0.19,0.42 0.42,0.42h1.43c0.23,0 0.42,-0.19 0.42,-0.42v-1.44c0,-0.23 -0.19,-0.42 -0.42,-0.42" />
	</g>
</svg>